<svg width="164" height="314" viewBox="0 0 164 314" xmlns="http://www.w3.org/2000/svg">
  <!-- Фон боковой панели -->
  <rect width="164" height="314" fill="#2C3E50"/>
  
  <!-- Декоративные элементы -->
  <rect x="10" y="20" width="144" height="4" rx="2" fill="#3498DB"/>
  <rect x="10" y="290" width="144" height="4" rx="2" fill="#3498DB"/>
  
  <!-- Логотип Java -->
  <g transform="translate(50, 80)">
    <path d="M40.7,77.2c0,0-4.2,2.4,3,3.3c8.7,1,13.2,0.9,22.8-1c0,0,2.5,1.6,6.1,3C49.6,93.3,16.2,81.4,40.7,77.2" fill="#E76F00"/>
    <path d="M37.6,66.3c0,0-4.7,3.5,2.5,4.2c9.3,0.9,16.7,1,29.4-1.3c0,0,1.8,1.8,4.5,2.8C46.6,80.8,11.5,71.8,37.6,66.3" fill="#E76F00"/>
    <path d="M53.6,47.8c5.3,6.1-1.4,11.6-1.4,11.6s13.5-7,7.3-15.7c-5.8-8.1-10.2-12.1,13.8-26C73.3,17.7,36.1,27.7,53.6,47.8" fill="#E76F00"/>
    <path d="M74.1,85.5c0,0,3.1,2.6-3.4,4.6c-12.4,3.7-51.6,4.9-62.5,0.1c-3.9-1.7,3.4-4,5.7-4.5c2.4-0.5,3.8-0.4,3.8-0.4c-4.3-3-28,6-12,8.6C48.1,100.1,85.4,90.5,74.1,85.5" fill="#E76F00"/>
    <path d="M42.1,55.9c0,0-19.9,4.7-7,6.4c6.1,0.8,18.2,0.6,29.5-0.3c9.2-0.8,18.5-2.4,18.5-2.4s-3.3,1.4-5.6,3c-22.7,6-66.5,3.2-53.9-2.9C32.8,54.9,42.1,55.9,42.1,55.9" fill="#E76F00"/>
    <path d="M67.3,73.9c23.1-12,12.4-23.5,5-22c-1.8,0.4-2.6,0.7-2.6,0.7s0.7-1.1,2-1.5c14.9-5.2,26.3,15.3-4.8,23.4C67,74.5,67.2,74.2,67.3,73.9" fill="#E76F00"/>
    <path d="M58.2,0s12.8,12.8-12.1,32.5c-20,15.8-4.6,24.8,0,35.1c-11.7-10.5-20.3-19.8-14.5-28.4C40.3,26.9,63.7,20.7,58.2,0" fill="#5382A1"/>
    <path d="M43.1,100.4c22.2,1.4,56.2-0.8,57-11.1c0,0-1.6,3.9-18.3,7c-18.9,3.5-42.2,3.1-56,0.8C25.8,97.2,28.3,99.3,43.1,100.4" fill="#5382A1"/>
  </g>
  
  <!-- Текст -->
  <text x="82" y="200" font-family="Arial, sans-serif" font-size="16" font-weight="bold" fill="white" text-anchor="middle">JSR</text>
  <text x="82" y="220" font-family="Arial, sans-serif" font-size="10" fill="#ECF0F1" text-anchor="middle">Minecraft Java Finder</text>
</svg>